<mxfile host="app.diagrams.net" modified="2023-06-08T08:44:07.143Z" agent="Mozilla/5.0 (Macintosh; Intel Mac OS X 10_15_7) AppleWebKit/537.36 (KHTML, like Gecko) Chrome/113.0.0.0 Safari/537.36" version="21.3.6" etag="BdHdzLpAJeWr0Xvt6t3I" type="github">
  <diagram name="第 1 页" id="_GID-EE7i-XfAuJG5zpj">
    <mxGraphModel>
      <root>
        <mxCell id="0" />
        <mxCell id="1" parent="0" />
      </root>
    </mxGraphModel>
  </diagram>
</mxfile>
